<svg width="45" height="50" viewBox="0 0 45 50" fill="none" xmlns="http://www.w3.org/2000/svg">
<path d="M44.3576 0L40.1984 45.0502L22.1785 49.9021L4.1583 45.0502L0 0H44.3576ZM35.9767 9.16025H22.1623H8.10322L8.77559 14.6005H22.1623H22.9143L22.1623 14.9135L9.26484 20.2852L9.69258 25.6028L22.1623 25.6433L28.8457 25.6645L28.4179 32.7549L22.1622 34.5161V34.5106L22.1109 34.5248L16.0695 32.9997L15.7029 28.5983H15.6829H10.0792H10.0595L10.793 37.0951L22.1624 40.4573V40.4513L22.1829 40.4573L33.4914 37.1563L34.9583 20.2852H22.1624H22.1309L22.1624 20.2715L35.427 14.6005L35.9767 9.16025Z" fill="white"/>
</svg>
