<svg width="27" height="40" viewBox="0 0 27 40" fill="none" xmlns="http://www.w3.org/2000/svg">
<path d="M13.5 1H7.25C3.79823 1 1 3.79823 1 7.25C1 10.7018 3.79823 13.5 7.25 13.5M13.5 1V13.5M13.5 1H19.75C23.2019 1 26 3.79823 26 7.25C26 10.7018 23.2019 13.5 19.75 13.5M7.25 13.5H13.5M7.25 13.5C3.79823 13.5 1 16.2981 1 19.75C1 23.2019 3.79823 26 7.25 26M13.5 13.5H19.75M13.5 13.5V26M19.75 13.5C23.2019 13.5 26 16.2981 26 19.75C26 23.2019 23.2019 26 19.75 26C16.2981 26 13.5 23.2019 13.5 19.75C13.5 16.2981 16.2981 13.5 19.75 13.5ZM13.5 26H7.25M13.5 26V32.25C13.5 35.7019 10.7019 38.5 7.25 38.5C3.79823 38.5 1 35.7019 1 32.25C1 28.7981 3.79823 26 7.25 26" stroke="white" stroke-width="2" stroke-linecap="round" stroke-linejoin="round"/>
</svg>
