<svg width="45" height="45" viewBox="0 0 45 45" fill="none" xmlns="http://www.w3.org/2000/svg">
<path d="M1.79126 20.4427C1.31718 20.9869 1.05603 21.6844 1.05603 22.4062C1.05603 23.128 1.31718 23.8254 1.79126 24.3697L20.4475 43.026C20.9918 43.5001 21.6892 43.7612 22.4111 43.7612C23.1329 43.7612 23.8303 43.5001 24.3746 43.026L43.0204 24.3697C43.4986 23.8274 43.7625 23.1292 43.7625 22.4062C43.7625 21.6831 43.4986 20.985 43.0204 20.4427L24.3746 1.7864C23.8382 1.29644 23.132 1.03487 22.4058 1.05723C21.6815 1.03821 20.9785 1.3037 20.4475 1.79682L1.79126 20.4427Z" stroke="white" stroke-width="2.112" stroke-linecap="round" stroke-linejoin="round"/>
<path d="M24.8329 15.9946L28.8121 19.9738" stroke="white" stroke-width="2.112" stroke-linecap="round" stroke-linejoin="round"/>
<path d="M15.5308 6.69263L19.9787 11.1405" stroke="white" stroke-width="2.112" stroke-linecap="round" stroke-linejoin="round"/>
<path d="M22.4058 34.5989C24.3043 34.5989 25.8433 33.0599 25.8433 31.1614C25.8433 29.2629 24.3043 27.7239 22.4058 27.7239C20.5073 27.7239 18.9683 29.2629 18.9683 31.1614C18.9683 33.0599 20.5073 34.5989 22.4058 34.5989Z" stroke="white" stroke-width="2.112" stroke-linecap="round" stroke-linejoin="round"/>
<path d="M22.4058 17.0051C24.3043 17.0051 25.8433 15.4661 25.8433 13.5676C25.8433 11.6691 24.3043 10.1301 22.4058 10.1301C20.5073 10.1301 18.9683 11.6691 18.9683 13.5676C18.9683 15.4661 20.5073 17.0051 22.4058 17.0051Z" stroke="white" stroke-width="2.112" stroke-linecap="round" stroke-linejoin="round"/>
<path d="M31.2392 25.8384C33.1377 25.8384 34.6767 24.2994 34.6767 22.4009C34.6767 20.5024 33.1377 18.9634 31.2392 18.9634C29.3407 18.9634 27.8017 20.5024 27.8017 22.4009C27.8017 24.2994 29.3407 25.8384 31.2392 25.8384Z" stroke="white" stroke-width="2.112" stroke-linecap="round" stroke-linejoin="round"/>
<path d="M22.4058 27.7239V17.0051" stroke="white" stroke-width="2.112" stroke-linecap="round" stroke-linejoin="round"/>
</svg>
