<svg width="50" height="50" viewBox="0 0 50 50" fill="none" xmlns="http://www.w3.org/2000/svg">
<path fill-rule="evenodd" clip-rule="evenodd" d="M38.32 46.0803C33.9575 46.0803 31.1375 44.0005 29.7625 41.2805L33.5875 39.0649C34.595 40.7099 35.9025 41.9177 38.22 41.9177C40.165 41.9177 41.4075 40.9445 41.4075 39.6021C41.4075 37.5821 38.7125 36.7928 36.81 35.9778C33.42 34.5353 31.17 32.7228 31.17 28.8953C31.17 25.3728 33.855 22.688 38.0525 22.688C41.0375 22.688 43.1875 23.7278 44.73 26.4453L41.0725 28.7952C40.2675 27.3527 39.395 26.7822 38.0525 26.7822C36.675 26.7822 35.8025 27.6552 35.8025 28.7952C35.8025 30.2052 36.675 30.7754 38.69 31.6479C42.9125 33.458 46.1075 34.8799 46.1075 39.5349C46.1075 43.7649 42.785 46.0803 38.32 46.0803ZM27.5 38.9978C27.5 43.8653 24.5025 46.438 20.34 46.438C16.58 46.438 14.3275 45 13.22 42.5H13.1825H13.165H13.155L16.9775 39.8279C17.715 41.1354 18.38 42.063 19.99 42.063C21.535 42.063 22.5 41.2806 22.5 38.9331V22.5H27.5V38.9978ZM0 50H50V0H0V50Z" fill="white"/>
</svg>
