<svg width="46" height="51" viewBox="0 0 46 51" fill="none" xmlns="http://www.w3.org/2000/svg">
<path d="M22.6667 50.4896C22.6646 50.4896 22.6625 50.4896 22.6604 50.4896C21.9542 50.4896 21.2938 50.3 20.7271 49.9667L20.7458 49.9771L14.6271 46.3583C13.7146 45.8458 14.1604 45.6667 14.4604 45.5604C15.5146 45.2292 16.4313 44.8 17.2771 44.2729L17.2271 44.3021C17.2854 44.275 17.3521 44.2604 17.4229 44.2604C17.5187 44.2604 17.6083 44.2896 17.6833 44.3396L17.6813 44.3375L22.3813 47.1271C22.4625 47.1708 22.5604 47.1979 22.6646 47.1979C22.7687 47.1979 22.8667 47.1708 22.9521 47.125L22.9479 47.1271L41.2687 36.55C41.4375 36.4458 41.5479 36.2625 41.5479 36.0542C41.5479 36.0521 41.5479 36.0521 41.5479 36.05V14.9104C41.5458 14.7 41.4333 14.5146 41.2646 14.4125L41.2625 14.4104L22.9479 3.84375C22.8667 3.79792 22.7687 3.77083 22.6667 3.77083C22.5646 3.77083 22.4667 3.79792 22.3813 3.84583L22.3833 3.84375L4.07292 14.4125C3.9 14.5146 3.78542 14.7 3.78333 14.9125V36.0563C3.78333 36.2667 3.89792 36.4479 4.06875 36.5438L4.07083 36.5458L9.09167 39.4458C11.8146 40.8083 13.4812 39.2042 13.4812 37.5938V16.7146C13.4812 16.4229 13.7188 16.1854 14.0104 16.1854H14.0167H16.3396C16.6313 16.1854 16.8708 16.4208 16.8708 16.7146V37.5938C16.8708 41.2292 14.8917 43.3146 11.4458 43.3146C11.4042 43.3146 11.3562 43.3167 11.3083 43.3167C9.79792 43.3167 8.3875 42.8896 7.19167 42.15L2.42083 39.4042C1.2625 38.7208 0.5 37.4813 0.5 36.0604V14.9125C0.502083 13.4958 1.26667 12.2604 2.40417 11.5896L2.42292 11.5792L20.7458 0.991667C21.3021 0.68125 21.9646 0.5 22.6708 0.5C23.3771 0.5 24.0417 0.683333 24.6167 1.00208L24.5958 0.991667L42.9167 11.5792C44.0729 12.2604 44.8354 13.4958 44.8396 14.9125V36.0583C44.8375 37.4771 44.0729 38.7167 42.9333 39.3917L42.9146 39.4021L24.5979 49.9813C24.0479 50.3042 23.3854 50.4938 22.6771 50.4938C22.6729 50.4938 22.6667 50.4938 22.6625 50.4938L22.6667 50.4896Z" fill="white" stroke="white"/>
<path d="M28.3271 35.9249C20.3104 35.9249 18.6292 32.2457 18.6292 29.1561V29.1541C18.6292 28.8624 18.8646 28.627 19.1562 28.627H19.1604H21.5292C21.7937 28.627 22.0146 28.8207 22.0562 29.0728C22.4125 31.4853 23.4792 32.7041 28.3271 32.7041C32.1875 32.7041 33.8271 31.8311 33.8271 29.7832C33.8271 28.602 33.3625 27.727 27.3646 27.1395C22.3521 26.6395 19.2521 25.5353 19.2521 21.5249C19.2521 17.8291 22.3687 15.6228 27.5854 15.6228C33.4562 15.6228 36.3604 17.6603 36.7271 22.0311C36.7292 22.0457 36.7292 22.0624 36.7292 22.077C36.7292 22.3707 36.4917 22.6061 36.2 22.6061H33.8396C33.5896 22.6061 33.3792 22.4291 33.3271 22.1936V22.1895C32.7562 19.652 31.3687 18.8416 27.6062 18.8416C23.3917 18.8416 22.9021 20.3103 22.9021 21.4082C22.9021 22.7416 23.4812 23.1291 29.1708 23.8811C34.8 24.627 37.475 25.6791 37.475 29.6353C37.4667 33.6332 34.1396 35.9207 28.3333 35.9207L28.3271 35.9249Z" fill="white" stroke="white"/>
</svg>
