<svg width="50" height="45" viewBox="0 0 50 45" fill="none" xmlns="http://www.w3.org/2000/svg">
<path d="M29.4407 22.1834C29.4407 24.6482 27.4426 26.6464 24.9778 26.6464C22.5129 26.6464 20.5148 24.6482 20.5148 22.1834C20.5148 19.7186 22.5129 17.7205 24.9778 17.7205C27.4426 17.7205 29.4407 19.7186 29.4407 22.1834Z" fill="white"/>
<path d="M24.9759 32.4055C24.6037 32.4147 24.1648 32.4203 23.7241 32.4203C18.5185 32.4203 13.4981 31.6333 8.77407 30.1722L9.13148 30.2666C6.62963 29.4592 4.46111 28.2684 2.57407 26.7425L2.61296 26.7722C1.15185 25.7147 0.168519 24.0777 0.00185185 22.2036L0 22.1796C0 19.2277 3.23518 16.3388 8.66852 14.4536C13.3204 12.9222 18.6741 12.0388 24.2333 12.0388C24.4907 12.0388 24.7481 12.0407 25.0056 12.0444H24.9667C25.1815 12.0407 25.4333 12.0388 25.687 12.0388C31.1778 12.0388 36.4648 12.9073 41.4204 14.5147L41.0593 14.4129C43.4759 15.1981 45.5741 16.3314 47.4167 17.7722L47.3722 17.7388C48.8074 18.7499 49.7759 20.3388 49.9389 22.1592L49.9407 22.1833C49.9407 25.2499 46.3222 28.3536 40.4907 30.2833C36.1148 31.6333 31.0833 32.411 25.8704 32.411C25.5556 32.411 25.2426 32.4073 24.9296 32.4018H24.9759V32.4055ZM24.9759 14.1833C24.7796 14.1796 24.5463 14.1796 24.313 14.1796C18.9778 14.1796 13.8389 15.0166 9.01852 16.5666L9.37222 16.4684C4.37593 18.211 2.13519 20.5944 2.13519 22.1851C2.13519 23.8388 4.54444 26.4444 9.82593 28.2481C13.9907 29.5388 18.7778 30.2833 23.7389 30.2833C24.1741 30.2833 24.6074 30.2777 25.0389 30.2666L24.9759 30.2684C25.2463 30.274 25.5648 30.2777 25.8833 30.2777C30.8537 30.2777 35.65 29.537 40.1704 28.161L39.8241 28.2518C45.3056 26.4296 47.8241 23.824 47.8241 22.1777C47.6352 20.9962 46.9685 19.9999 46.0352 19.3722L46.0204 19.3629C44.4167 18.1147 42.5463 17.1092 40.5204 16.4481L40.3907 16.411C36.0056 14.9925 30.9593 14.174 25.7241 14.174C25.4611 14.174 25.2 14.1759 24.9389 14.1796H24.9778L24.9759 14.1833Z" fill="white"/>
<path d="M14.85 44.4278C14.8204 44.4278 14.7852 44.4296 14.7519 44.4296C13.913 44.4296 13.1259 44.2093 12.4463 43.8241L12.4704 43.837C9.91853 42.3556 9.02964 38.1111 10.1 32.4648C11.3908 26.6722 13.4833 21.55 16.2926 16.9093L16.1648 17.1389C18.9408 12.2222 22.2945 8.01667 26.2111 4.41296L26.2482 4.37963C27.9574 2.81667 29.9574 1.53333 32.15 0.624074L32.2852 0.574074C33.0389 0.211111 33.9241 0 34.8593 0C35.7871 0 36.6667 0.209259 37.4519 0.581481L37.4148 0.566667C40.0722 2.0963 40.9537 6.78889 39.7074 12.8C38.3741 18.2944 36.3408 23.1333 33.6667 27.5389L33.7963 27.3111C31.1074 32.1815 27.8537 36.3518 24.0445 39.9389L24.0185 39.963C22.2445 41.587 20.1611 42.9074 17.8685 43.8185L17.7315 43.8667C16.8796 44.2019 15.8945 44.4074 14.863 44.4315H14.8519L14.85 44.4278ZM17.0815 17.6741L18.0056 18.2074C15.4482 22.4296 13.4408 27.3296 12.2537 32.5407L12.1908 32.8741C11.2037 38.0759 12.1556 41.2037 13.5241 41.9963C13.8778 42.1852 14.2963 42.2944 14.7408 42.2944C14.7778 42.2944 14.8167 42.2944 14.8537 42.2926H14.8482C16.6167 42.2926 19.4 41.1722 22.6185 38.363C26.2778 34.9056 29.3852 30.913 31.8259 26.5037L31.9519 26.2537C34.3926 22.2611 36.3426 17.637 37.5537 12.7222L37.6241 12.3852C38.7889 6.72222 37.7833 3.25556 36.3537 2.42593C35.913 2.25185 35.4019 2.15185 34.8685 2.15185C34.1945 2.15185 33.5574 2.31296 32.9945 2.5963L33.0185 2.58519C30.9482 3.4463 29.1704 4.5963 27.6352 6.0037L27.6482 5.99259C23.8685 9.47593 20.663 13.5056 18.1371 17.9704L18.0093 18.2148L17.0815 17.6741Z" fill="white"/>
<path d="M35.1037 44.4538C32.6852 44.4538 29.6222 42.9964 26.4185 40.239C22.3907 36.5668 18.9796 32.3094 16.3 27.5835L16.1667 27.3298C13.5185 22.9797 11.4426 17.9316 10.213 12.5612L10.1463 12.2186C9.84629 10.9057 9.67407 9.40012 9.67407 7.85382C9.67407 6.8779 9.74259 5.92049 9.87407 4.9816L9.86111 5.08901C10.0185 3.24086 10.987 1.64827 12.4018 0.646415L12.4204 0.633452C15.0685 -0.903585 19.5778 0.677897 24.1648 4.75938C27.9093 8.30382 31.1056 12.376 33.6426 16.8705L33.7759 17.126C36.4204 21.3797 38.5111 26.3131 39.7796 31.5668L39.85 31.9112C40.1518 33.2242 40.3259 34.7335 40.3259 36.2816C40.3259 37.3501 40.2444 38.3983 40.0852 39.4223L40.1 39.3075C39.9093 41.2001 38.9074 42.8279 37.4537 43.8557L37.4333 43.8686C36.7889 44.2372 36.0185 44.4538 35.1981 44.4538C35.1648 44.4538 35.1315 44.4538 35.0981 44.452L35.1037 44.4538ZM18.0148 26.2631C20.7148 31.0242 23.9722 35.0983 27.7759 38.589L27.813 38.6223C31.8241 42.0723 35.0056 42.8186 36.3833 42.0186C37.8148 41.1927 38.863 37.8038 37.7796 32.3279C36.4796 26.976 34.4704 22.2649 31.8185 17.9927L31.9389 18.2001C29.3852 13.652 26.3333 9.75197 22.7759 6.3779L22.7537 6.35753C18.4315 2.51679 14.9296 1.65382 13.4981 2.47975C12.6222 3.19271 12.0463 4.24271 11.9704 5.42975V5.44271C11.8685 6.16493 11.8111 6.99827 11.8111 7.84642C11.8111 9.24827 11.9704 10.6112 12.2704 11.9223L12.2463 11.8001C13.4926 17.2668 15.4815 22.0946 18.1389 26.4742L18.0167 26.2575L18.0148 26.2631Z" fill="white"/>
</svg>
