<svg width="37" height="44" viewBox="0 0 37 44" fill="none" xmlns="http://www.w3.org/2000/svg">
<path d="M18.6451 26.0986C17.8935 26.4439 17.0701 26.8939 15.4216 27.7986C14.7966 28.1502 14.1435 28.5017 13.5357 28.833C13.4935 28.7908 13.4498 28.7377 13.4076 28.6939C10.1466 25.2095 4.11539 22.7486 4.37164 18.0689C4.46695 16.3642 5.05289 11.8892 15.9544 6.45484C24.9263 2.03297 32.0654 3.25797 33.2982 5.97516C35.0701 9.84859 29.4716 17.0564 20.206 18.1017C19.1805 18.3097 18.1214 18.2846 17.1069 18.0282C16.0925 17.7718 15.1486 17.2907 14.3451 16.6205C13.8544 16.0877 13.781 16.0564 13.5998 16.1627C13.3013 16.3189 13.4935 16.8017 13.5998 17.0783C13.9532 17.7182 14.4313 18.2808 15.0059 18.7327C15.5805 19.1846 16.2399 19.5168 16.9451 19.7095C20.5913 20.4977 24.393 20.1211 27.8138 18.633C33.4294 16.4595 37.8138 10.4173 36.5294 5.35172C35.2404 0.21578 26.7154 -1.47797 18.6498 1.38766C13.5986 3.08983 8.93184 5.76939 4.91539 9.27359C0.471636 13.4298 -0.231489 17.0423 0.0560114 18.5548C1.09039 23.9252 8.49351 27.4205 11.4623 30.0095C11.306 30.0955 11.1748 30.1658 11.0576 30.233C9.57632 30.9689 3.92945 33.9205 2.52164 37.0423C0.923199 40.5798 2.77789 43.1158 4.00289 43.4564C5.84896 43.8986 7.78705 43.7532 9.5465 43.0406C11.306 42.328 12.7989 41.0836 13.8169 39.4814C14.6814 38.1528 15.2123 36.635 15.3644 35.0572C15.5164 33.4794 15.2852 31.8882 14.6904 30.4189C15.0413 30.139 15.4156 29.8896 15.8091 29.6736C16.5654 29.2267 17.2857 28.7861 17.9248 28.4455C20.1129 27.4206 22.5007 26.8928 24.9169 26.9002C29.9888 27.497 30.9904 30.6611 30.7982 31.9939C30.7083 32.4668 30.5181 32.9149 30.2405 33.3081C29.9629 33.7014 29.6043 34.0306 29.1888 34.2736C28.8373 34.497 28.7201 34.572 28.7513 34.7314C28.7935 34.9658 28.9638 34.9548 29.2623 34.9127C30.0243 34.6718 30.6956 34.2061 31.1881 33.5767C31.6806 32.9473 31.9711 32.1837 32.0216 31.3861C32.1779 28.2611 29.1982 24.833 23.9232 24.8642C22.3437 24.8669 20.78 25.1785 19.3201 25.7814C19.0857 25.8783 18.8581 25.9824 18.6373 26.0939L18.6451 26.0986ZM11.106 38.347C9.42164 40.1798 7.07789 40.872 6.06539 40.2861C4.97164 39.6611 5.40445 36.9502 7.47164 35.0111C8.69595 33.908 10.0192 32.92 11.4248 32.0595C11.6701 31.9033 12.0326 31.697 12.4685 31.4345C12.5435 31.3923 12.5857 31.3705 12.5857 31.3705L12.8419 31.2142C13.2106 32.4503 13.2442 33.7622 12.9392 35.0155C12.6341 36.2688 12.0015 37.4186 11.106 38.347Z" fill="white"/>
</svg>
