<svg width="40" height="40" viewBox="0 0 40 40" fill="none" xmlns="http://www.w3.org/2000/svg">
<path d="M26 9.33333V38.5M32.25 17.6667H32.2708M32.25 23.9167H32.2708M32.25 30.1667H32.2708M30.1667 1L19.75 9.33333L9.33333 1M11 38.5H28.5C32.0004 38.5 33.7504 38.5 35.0875 37.8187C36.2635 37.2196 37.2196 36.2635 37.8187 35.0875C38.5 33.7504 38.5 32.0004 38.5 28.5V19.3333C38.5 15.8329 38.5 14.0828 37.8187 12.7459C37.2196 11.5699 36.2635 10.6137 35.0875 10.0145C33.7504 9.33333 32.0004 9.33333 28.5 9.33333H11C7.49967 9.33333 5.7495 9.33333 4.41256 10.0145C3.23654 10.6137 2.28042 11.5699 1.68121 12.7459C1 14.0828 1 15.8329 1 19.3333V28.5C1 32.0004 1 33.7504 1.68121 35.0875C2.28042 36.2635 3.23654 37.2196 4.41256 37.8187C5.7495 38.5 7.49967 38.5 11 38.5Z" stroke="white" stroke-width="2" stroke-linecap="round" stroke-linejoin="round"/>
</svg>
